#Comment line ignore any data following # character 
#Hierarchical Translation and Rotation (.htr) file 
[Header]	
#Header keywords are followed by a single value 
FileType HTR		#Single word string
DataType HTRS		#Translation followed by rotation and scale data
FileVersion 1		#integer
NumSegments 25		#integer
NumFrames 5		#integer
DataFrameRate 30		#integer, data frame rate in this file
EulerRotationOrder ZYX
CalibrationUnits mm
RotationUnits Degrees
GlobalAxisofGravity Y
BoneLengthAxis Y
ScaleFactor 1.00
[SegmentNames&Hierarchy]
#CHILD	PARENT
BN_Tick_Root GLOBAL
BN_Torso BN_Tick_Root
BN_L_Leg_Front01 BN_Torso
BN_L_Leg_Rear01 BN_Torso
BN_MetalTop BN_Torso
BN_Neck BN_Torso
BN_R_Leg_Front01 BN_Torso
BN_R_Leg_Rear01 BN_Torso
BN_Sack BN_Torso
BN_L_Leg_Front02 BN_L_Leg_Front01
BN_L_Leg_Front03 BN_L_Leg_Front02
BN_L_Leg_Rear02 BN_L_Leg_Rear01
BN_L_Leg_Rear03 BN_L_Leg_Rear02
BN_Head BN_Neck
BN_Needle BN_Head
BN_R_Leg_Front02 BN_R_Leg_Front01
BN_R_Leg_Front03 BN_R_Leg_Front02
BN_R_Leg_Rear02 BN_R_Leg_Rear01
BN_R_Leg_Rear03 BN_R_Leg_Rear02
BN_SackDef01 BN_Sack
BN_SackDef02 BN_Sack
BN_SackDef03 BN_Sack
BN_SackDef04 BN_Sack
BN_SackDef05 BN_Sack
BN_SackDef06 BN_Sack
[BasePosition]
#SegmentName Tx, Ty, Tz, Rx, Ry, Rz, BoneLength
BN_Tick_Root 0.000000 0.000000 0.000000 -90.000000 0.000000 0.000000 10.000000 
BN_Torso 0.000000 0.000000 0.000000 0.000000 0.000000 0.000000 10.000000 
BN_L_Leg_Front01 0.000000 0.000000 0.000000 0.000000 0.000000 0.000000 10.000000 
BN_L_Leg_Rear01 0.000000 0.000000 0.000000 0.000000 0.000000 0.000000 10.000000 
BN_MetalTop 0.000000 0.000000 0.000000 0.000000 0.000000 0.000000 10.000000 
BN_Neck 0.000000 0.000000 0.000000 0.000000 0.000000 0.000000 10.000000 
BN_R_Leg_Front01 0.000000 0.000000 0.000000 0.000000 0.000000 0.000000 10.000000 
BN_R_Leg_Rear01 0.000000 0.000000 0.000000 0.000000 0.000000 0.000000 10.000000 
BN_Sack 0.000000 0.000000 0.000000 0.000000 0.000000 0.000000 10.000000 
BN_L_Leg_Front02 0.000000 0.000000 0.000000 0.000000 0.000000 0.000000 10.000000 
BN_L_Leg_Front03 0.000000 0.000000 0.000000 0.000000 0.000000 0.000000 10.000000 
BN_L_Leg_Rear02 0.000000 0.000000 0.000000 0.000000 0.000000 0.000000 10.000000 
BN_L_Leg_Rear03 0.000000 0.000000 0.000000 0.000000 0.000000 0.000000 10.000000 
BN_Head 0.000000 0.000000 0.000000 0.000000 0.000000 0.000000 10.000000 
BN_Needle 0.000000 0.000000 0.000000 0.000000 0.000000 0.000000 10.000000 
BN_R_Leg_Front02 0.000000 0.000000 0.000000 0.000000 0.000000 0.000000 10.000000 
BN_R_Leg_Front03 0.000000 0.000000 0.000000 0.000000 0.000000 0.000000 10.000000 
BN_R_Leg_Rear02 0.000000 0.000000 0.000000 0.000000 0.000000 0.000000 10.000000 
BN_R_Leg_Rear03 0.000000 0.000000 0.000000 0.000000 0.000000 0.000000 10.000000 
BN_SackDef01 0.000000 0.000000 0.000000 0.000000 0.000000 0.000000 10.000000 
BN_SackDef02 0.000000 0.000000 0.000000 0.000000 0.000000 0.000000 10.000000 
BN_SackDef03 0.000000 0.000000 0.000000 0.000000 0.000000 0.000000 10.000000 
BN_SackDef04 0.000000 0.000000 0.000000 0.000000 0.000000 0.000000 10.000000 
BN_SackDef05 0.000000 0.000000 0.000000 0.000000 0.000000 0.000000 10.000000 
BN_SackDef06 0.000000 0.000000 0.000000 0.000000 0.000000 0.000000 10.000000 
#Beginning of Data. Separated by tabs
#Fr	Tx	Ty	Tz	Rx	Ry	Rz	SF
[BN_Tick_Root]
1 0.000000 0.000000 0.000000 0.000000 0.000000 -0.000020 0.000000
2 0.000000 0.000000 -0.000000 0.000000 0.000000 -0.000020 0.000000
3 0.000000 0.000000 -0.000000 0.000000 0.000000 -0.000020 0.000000
4 0.000000 0.000000 -0.000000 0.000000 0.000000 -0.000020 0.000000
5 0.000000 0.000000 -0.000000 0.000000 0.000000 -0.000020 0.000000
[BN_Torso]
1 -0.000114 4.775238 213.800308 0.001660 0.001660 0.001660 213.853638
2 -0.000120 4.775250 213.800308 0.001660 0.001660 0.001660 213.853638
3 -0.000125 4.775262 213.800308 0.001660 0.001660 0.001660 213.853638
4 -0.000130 4.775275 213.800308 0.001660 0.001660 0.001660 213.853638
5 -0.000135 4.775287 213.800308 0.001660 0.001660 0.001660 213.853638
[BN_L_Leg_Front01]
1 -68.477791 10.734189 -26.804373 -50.662464 47.679050 138.378082 74.316254
2 -68.477791 10.734189 -26.804373 -50.662464 47.679050 138.378082 74.316254
3 -68.477791 10.734189 -26.804373 -50.662464 47.679050 138.378082 74.316254
4 -68.477791 10.734189 -26.804373 -50.662464 47.679050 138.378082 74.316254
5 -68.477791 10.734189 -26.804373 -50.662464 47.679050 138.378082 74.316254
[BN_L_Leg_Rear01]
1 -72.133743 -73.994843 -18.268616 64.655060 44.382442 -139.262268 104.939293
2 -72.133743 -73.994843 -18.268616 64.655060 44.382442 -139.262268 104.939293
3 -72.133743 -73.994843 -18.268616 64.655060 44.382442 -139.262268 104.939293
4 -72.133743 -73.994843 -18.268616 64.655060 44.382442 -139.262268 104.939293
5 -72.133743 -73.994843 -18.268616 64.655060 44.382442 -139.262268 104.939293
[BN_MetalTop]
1 0.000008 13.737477 26.403606 90.001404 -12.929121 -89.998405 29.763546
2 0.000008 13.737477 26.403606 90.001259 -12.929121 -89.998566 29.763546
3 0.000008 13.737477 26.403606 90.001114 -12.929123 -89.998718 29.763546
4 0.000008 13.737477 26.403606 90.000977 -12.929121 -89.998878 29.763546
5 0.000008 13.737477 26.403606 90.000839 -12.929121 -89.999039 29.763546
[BN_Neck]
1 0.000014 95.233284 10.002091 -90.003807 -65.297737 90.002632 95.757088
2 0.000014 95.233284 10.002091 -90.003807 -65.297737 90.002632 95.757088
3 0.000014 95.233284 10.002091 -90.003807 -65.297737 90.002632 95.757088
4 0.000014 95.233284 10.002091 -90.003807 -65.297737 90.002632 95.757088
5 0.000014 95.233284 10.002091 -80.151215 -70.645416 83.329109 95.757088
[BN_R_Leg_Front01]
1 68.477768 10.734107 -26.804314 50.664875 47.676376 41.621712 74.316193
2 68.477768 10.734107 -26.804314 50.664875 47.676376 41.621712 74.316193
3 68.477768 10.734107 -26.804314 50.664875 47.676376 41.621712 74.316193
4 68.477768 10.734107 -26.804314 50.664875 47.676376 41.621712 74.316193
5 68.477768 10.734107 -26.804314 50.664875 47.676376 41.621712 74.316193
[BN_R_Leg_Rear01]
1 72.133751 -73.994873 -18.268644 -64.650276 44.379810 -40.739170 104.939331
2 72.133751 -73.994873 -18.268644 -64.650284 44.379814 -40.739178 104.939331
3 72.133751 -73.994873 -18.268644 -64.650276 44.379810 -40.739170 104.939331
4 72.133751 -73.994873 -18.268644 -64.650276 44.379810 -40.739170 104.939331
5 72.133751 -73.994873 -18.268644 -64.650276 44.379810 -40.739170 104.939331
[BN_Sack]
1 -0.000000 -78.024918 33.657791 89.999641 -6.303734 -89.998108 84.974907
2 -0.000000 -78.024918 33.657791 89.999535 -4.273507 -90.002739 84.974907
3 -0.000000 -78.024918 33.657791 89.999069 -2.427537 -90.002312 84.974907
4 -0.000000 -78.024918 33.657791 90.002335 -0.773869 -90.000717 84.974907
5 -0.000000 -78.024918 33.657791 90.002121 0.700149 -90.001167 84.974907
[BN_L_Leg_Front02]
1 142.805023 -0.000015 -0.000104 0.178509 0.292202 -92.702171 142.805023
2 142.805023 -0.000015 -0.000104 0.178869 0.292548 -92.694656 142.805023
3 142.805023 -0.000015 -0.000104 0.179230 0.292894 -92.687126 142.805023
4 142.805023 -0.000015 -0.000104 0.179591 0.293240 -92.679611 142.805023
5 142.805023 -0.000015 -0.000104 0.179951 0.293586 -92.672089 142.805023
[BN_L_Leg_Front03]
1 124.143021 -0.000045 0.000007 0.352128 -0.442654 100.326675 124.143021
2 124.143021 -0.000045 0.000007 0.352166 -0.442623 100.316650 124.143021
3 124.143021 -0.000045 0.000007 0.352205 -0.442593 100.306641 124.143021
4 124.143021 -0.000045 0.000007 0.352244 -0.442562 100.296631 124.143021
5 124.143021 -0.000045 0.000007 0.352283 -0.442531 100.286606 124.143021
[BN_L_Leg_Rear02]
1 139.939041 0.000075 -0.000022 0.148793 -0.182090 75.570389 139.939041
2 139.939041 0.000075 -0.000022 0.147113 -0.182903 75.581871 139.939041
3 139.939041 0.000075 -0.000022 0.145433 -0.183715 75.593346 139.939041
4 139.939041 0.000075 -0.000022 0.143753 -0.184527 75.604836 139.939041
5 139.939041 0.000075 -0.000022 0.142073 -0.185338 75.616318 139.939041
[BN_L_Leg_Rear03]
1 142.839615 0.000179 -0.000060 0.000022 0.002347 -88.941734 142.839615
2 142.839615 0.000179 -0.000060 0.000022 0.002347 -88.941734 142.839615
3 142.839615 0.000179 -0.000060 0.000022 0.002347 -88.941734 142.839615
4 142.839615 0.000179 -0.000060 0.000022 0.002347 -88.941734 142.839615
5 142.839615 0.000179 -0.000060 0.000022 0.002347 -88.941734 142.839615
[BN_Head]
1 57.062447 -0.000030 0.000000 0.001660 0.001660 0.001660 57.062447
2 57.062447 -0.000030 0.000000 0.001660 0.001660 0.001660 57.062447
3 57.062447 -0.000030 0.000000 0.001660 0.001660 0.001660 57.062447
4 57.062447 -0.000030 0.000000 0.001661 0.001660 0.001658 57.062447
5 57.062447 -0.000030 0.000000 3.383117 2.009958 -5.434029 57.062447
[BN_Needle]
1 33.915195 69.677734 -0.000114 0.000003 0.000030 87.896805 77.493401
2 33.915195 69.677734 -0.000114 0.000003 0.000030 87.896805 77.493401
3 33.915195 69.677734 -0.000113 0.000003 0.000030 87.896805 77.493401
4 33.915195 69.677727 -0.000112 0.000003 0.000030 87.896805 77.493393
5 33.915195 69.677727 -0.000112 0.000003 0.000030 87.896805 77.493393
[BN_R_Leg_Front02]
1 142.804947 -0.000060 0.000060 -0.207633 0.291761 92.711121 142.804947
2 142.804947 -0.000060 0.000060 -0.204123 0.292374 92.709785 142.804947
3 142.804947 -0.000060 0.000060 -0.200613 0.292987 92.708435 142.804947
4 142.804947 -0.000060 0.000060 -0.197104 0.293600 92.707069 142.804947
5 142.804947 -0.000060 0.000060 -0.193594 0.294214 92.705711 142.804947
[BN_R_Leg_Front03]
1 124.143005 -0.000060 -0.000156 -0.353359 -0.441626 -100.331009 124.143005
2 124.143005 -0.000060 -0.000156 -0.353359 -0.441626 -100.331009 124.143005
3 124.143005 -0.000060 -0.000156 -0.353359 -0.441626 -100.331009 124.143005
4 124.143005 -0.000060 -0.000156 -0.353359 -0.441626 -100.331009 124.143005
5 124.143005 -0.000060 -0.000156 -0.353359 -0.441626 -100.331009 124.143005
[BN_R_Leg_Rear02]
1 139.939011 -0.000149 0.000015 -0.140086 -0.187891 -75.584984 139.939011
2 139.939011 -0.000149 0.000015 -0.140694 -0.187107 -75.583733 139.939011
3 139.939011 -0.000149 0.000015 -0.141302 -0.186324 -75.582466 139.939011
4 139.939011 -0.000149 0.000015 -0.141910 -0.185541 -75.581215 139.939011
5 139.939011 -0.000149 0.000015 -0.142518 -0.184758 -75.579971 139.939011
[BN_R_Leg_Rear03]
1 142.839417 0.000075 0.000119 0.002347 0.000022 88.939468 142.839417
2 142.839417 0.000075 0.000119 0.002347 0.000022 88.939468 142.839417
3 142.839417 0.000075 0.000119 0.002347 0.000022 88.939468 142.839417
4 142.839417 0.000075 0.000119 0.002347 0.000022 88.939468 142.839417
5 142.839417 0.000075 0.000119 0.002347 0.000022 88.939468 142.839417
[BN_SackDef01]
1 249.782272 -3.760844 42.949425 -128.408218 -44.374973 -11.740845 253.475800
2 249.782272 -3.760844 42.949425 -128.408218 -44.374973 -11.740845 253.475800
3 249.782272 -3.760844 42.949425 -128.408218 -44.374973 -11.740845 253.475800
4 249.782272 -3.760844 42.949425 -128.408218 -44.374973 -11.740845 253.475800
5 249.782272 -3.760844 42.949425 -128.408218 -44.374973 -11.740845 253.475800
[BN_SackDef02]
1 138.789795 -62.131748 45.674385 32.077126 -27.375721 -88.781525 158.773758
2 138.789795 -62.131748 45.674385 32.077126 -27.375721 -88.781525 158.773758
3 138.789795 -62.131748 45.674385 32.077126 -27.375721 -88.781525 158.773758
4 138.789795 -62.131748 45.674385 32.077126 -27.375721 -88.781525 158.773758
5 138.789795 -62.131748 45.674385 32.077126 -27.375721 -88.781525 158.773758
[BN_SackDef03]
1 249.782272 -3.760785 -42.949661 18.144459 44.375008 -11.740894 253.475845
2 249.782272 -3.760785 -42.949661 18.144459 44.375008 -11.740894 253.475845
3 249.782272 -3.760785 -42.949661 18.144459 44.375008 -11.740894 253.475845
4 249.782272 -3.760785 -42.949661 18.144459 44.375008 -11.740894 253.475845
5 249.782272 -3.760785 -42.949661 18.144459 44.375008 -11.740894 253.475845
[BN_SackDef04]
1 138.789780 -62.131645 -45.674473 146.059982 27.375723 -88.781555 158.773743
2 138.789780 -62.131645 -45.674473 146.059982 27.375723 -88.781555 158.773743
3 138.789780 -62.131645 -45.674473 146.059982 27.375723 -88.781555 158.773743
4 138.789780 -62.131645 -45.674473 146.059982 27.375723 -88.781555 158.773743
5 138.789780 -62.131645 -45.674473 146.059982 27.375723 -88.781555 158.773743
[BN_SackDef05]
1 118.790161 46.167137 -63.831196 0.155741 51.314110 90.605110 142.537460
2 118.790161 46.167137 -63.831196 0.155741 51.314110 90.605110 142.537460
3 118.790161 46.167137 -63.831196 0.155741 51.314110 90.605110 142.537460
4 118.790161 46.167137 -63.831196 0.155741 51.314110 90.605110 142.537460
5 118.790161 46.167137 -63.831196 0.155741 51.314110 90.605110 142.537460
[BN_SackDef06]
1 118.790207 46.167194 63.831219 152.058487 -51.314072 90.605019 142.537537
2 118.790207 46.167194 63.831219 152.058487 -51.314072 90.605019 142.537537
3 118.790207 46.167194 63.831219 152.058487 -51.314072 90.605019 142.537537
4 118.790207 46.167194 63.831219 152.058487 -51.314072 90.605019 142.537537
5 118.790207 46.167194 63.831219 152.058487 -51.314072 90.605019 142.537537
